PathFileType	4	(X/Y/Z)	C:/Users/beibeiliu/ov580/test_trc/User2\sequence.2_training_dense_right.trc
DataRate	CameraRate	NumFrames	NumMarkers	Units	OrigDataRate	OrigDataStartFrame	OrigNumFrames
120	120	16	19	mm	120	77	307
Frame#	Time	ThumbCMC			ThumbMCP			ThumbIP			ThumbTip			IndexMCP			IndexPIP			IndexTip			MiddleMCP			MiddlePIP			MiddleTip			RingMCP			RingPIP			RingTip			PinkyMCP			PinkyPIP			PinkyTip			BackHand1			BackHand2			BackHand3	
		X0	Y0	Z0	X1	Y1	Z1	X2	Y2	Z2	X3	Y3	Z3	X4	Y4	Z4	X5	Y5	Z5	X6	Y6	Z6	X7	Y7	Z7	X8	Y8	Z8	X9	Y9	Z9	X10	Y10	Z10	X11	Y11	Z11	X12	Y12	Z12	X13	Y13	Z13	X14	Y14	Z14	X15	Y15	Z15	X16	Y16	Z16	X17	Y17	Z17	X18	Y18	Z18	
76	0.633333	70.9016	23.3746	73.4482	35.622	0.525355	69.3536	15.214	-24.9999	64.4093	11.2744	-54.1229	55.872	59.9194	-20.5237	5.64361	29.4822	-38.9268	5.78338	16.319	-41.8114	42.5677	63.368	-39.9636	5.09942	34.1089	-60.4217	19.027	26.9832	-47.7351	54.7103	71.1051	-56.8633	20.1898	42.4096	-70.9937	35.1418	35.4274	-56.2282	64.8037	82.9237	-66.892	39.6	53.8837	-75.6115	52.5567	42.2149	-53.292	76.7681	118.75	-20.4328	47.4328	136.793	-6.70987	66.8222	109.612	17.4936	50.4803	
77	0.641667	70.108	28.3971	69.6391	35.8764	11.4202	71.9513	8.43658	-10.8715	66.7439	0.502637	-40.8522	63.2194	47.8552	-21.0739	4.587	19.7339	-35.0051	11.7425	5.85207	-31.4282	44.2126	52.209	-43.2404	12.1098	19.7785	-51.2826	23.8031	15.9626	-37.0531	62.0734	53.865	-62.7998	29.7072	26.9919	-62.0794	41.0332	18.7342	-43.3769	68.9193	66.4931	-70.1257	52.0801	34.6817	-68.3448	65.4367	29.8066	-42.5657	86.9325	108.075	-29.3005	50.954	128.3	-15.1594	72.1617	107.087	8.09302	49.3945	
78	0.65	71.9467	33.8041	67.9163	33.38	25.1792	70.189	0.262268	0.576289	64.2341	-3.71944	-28.003	66.0082	44.5744	-19.2385	11.6153	10.3533	-26.8919	13.0659	-3.03595	-18.4135	45.6167	44.7308	-39.7281	18.0987	9.11288	-46.6428	31.5633	6.04763	-23.8307	64.3818	41.238	-57.4642	38.254	11.6028	-55.0921	52.4231	9.61983	-29.6737	76.539	47.6623	-65.2179	59.0597	20.0908	-59.5676	71.4936	15.3959	-31.301	87.748	100.783	-31.8943	55.2719	123.737	-14.4537	74.8695	103.229	4.59147	49.063	
79	0.658333	72.3164	36.4484	64.4119	33.3924	34.8743	64.3065	4.30757	18.7513	65.3017	-8.53788	-9.03085	66.3344	34.4337	-15.3575	10.1518	2.70858	-20.4786	18.6181	-9.4537	-0.780462	43.633	33.9385	-33.9625	20.6575	-1.08191	-32.9928	33.2997	2.21069	-4.37211	66.6907	31.9816	-47.0189	42.1667	-0.248811	-39.5196	54.403	2.85409	-12.5721	79.671	34.924	-57.88	64.6729	7.89012	-42.3735	71.3336	6.78307	-15.6015	92.7956	92.2439	-32.0144	60.5295	114.994	-18.0032	76.1642	100.368	4.73369	50.8896	
80	0.666667	76.7169	39.9092	61.3874	35.1896	43.1368	58.791	2.63148	32.6918	58.81	-17.0392	10.1283	62.4507	30.2413	-13.2479	12.9445	-2.39175	-8.02288	16.6779	-12.1125	13.1112	43.2479	23.7897	-28.8568	24.5318	-9.51086	-20.248	37.217	-2.33926	9.41729	63.7123	21.3267	-39.3193	45.04	-7.36422	-26.1572	54.1144	-3.948	3.23927	76.6805	24.8058	-44.8831	66.008	-3.52144	-27.0926	76.0921	4.04337	1.08632	92.9996	82.9596	-30.233	63.2429	107.155	-19.9282	80.9318	97.2358	2.75627	51.6988	
81	0.675	79.2436	42.5753	58.2554	41.8991	52.9563	54.5512	6.81779	48.594	51.6376	-11.164	27.2972	58.7052	26.8643	-3.44569	10.0093	-4.89945	4.92946	14.3969	-12.337	29.8625	40.0766	14.6389	-21.8308	24.9176	-14.2741	-3.0027	38.3585	-1.58432	24.8295	61.0431	10.5454	-29.5981	46.1887	-14.944	-8.77399	53.0782	-7.05321	17.1259	77.3555	13.73	-33.5839	67.6589	-10.5315	-12.4465	75.8598	-1.37005	15.3333	88.8212	75.4175	-27.4383	67.6901	101.127	-22.4691	85.8349	93.1221	-1.80231	53.3313	
82	0.683333	82.2979	45.6264	52.9207	48.1467	59.0685	47.8145	12.4838	56.8283	44.0593	-10.107	41.9598	50.027	23.6028	0.403024	11.0026	-4.48082	12.5151	11.1556	-9.67036	36.6237	34.1358	13.7816	-11.5772	22.8061	-14.6389	8.57784	27.4351	0.785435	37.809	57.9612	4.3702	-18.1038	43.4538	-17.1301	5.60077	49.6008	-8.06303	29.8401	68.9495	10.1557	-23.2509	66.7345	-14.7091	1.27557	72.0426	-3.02709	27.6344	82.8754	64.416	-26.7834	66.5525	93.21	-21.4617	83.0785	88.4481	-0.826696	50.7786	
83	0.691667	86.502	42.7421	53.1958	53.5196	63.5257	41.1447	20.6217	66.9726	35.8209	-6.23322	53.7518	40.7055	27.0791	4.08731	8.22846	-3.47418	22.6003	4.88695	-3.7861	50.9197	26.4919	12.2992	-7.20257	21.2977	-14.6453	17.2904	24.8251	0.584291	45.4137	49.8818	5.67686	-9.81108	40.2472	-18.2156	11.1975	44.5285	-4.2222	43.0625	61.4118	2.49035	-12.2184	62.4637	-14.5782	15.9437	64.7614	-1.567	38.8073	76.7059	60.2381	-24.817	68.623	88.7887	-20.3783	89.8262	88.3829	-3.16193	51.0127	
84	0.7	89.7785	42.5284	49.641	60.472	62.1875	36.4522	25.5004	71.4269	26.2017	1.75853	61.4497	33.1038	30.0248	9.00593	-1.31193	1.07429	26.4318	0.086616	2.70313	55.1538	20.4667	15.079	-0.621799	15.6383	-12.7218	27.4509	18.1067	4.45626	52.2823	45.3775	2.36777	-2.81077	32.7074	-19.5003	19.8358	39.6027	-1.87601	49.1494	52.0721	4.50552	-7.86458	60.5136	-17.3737	20.4702	59.17	0.254148	45.3964	67.6674	57.7659	-19.0908	62.1853	83.2009	-18.9061	85.9579	85.3751	-3.06402	50.6812	
85	0.708333	92.5251	40.6547	45.3844	68.1316	63.5816	29.3906	34.4794	70.2962	19.0795	7.15912	66.3316	20.3977	35.9279	8.17167	-2.61236	7.74586	26.7708	-9.32373	9.81615	57.4246	11.9466	15.6906	1.79616	7.01545	-8.30736	26.1864	9.19729	10.144	56.8686	35.0649	1.75206	-1.07981	31.064	-13.8609	24.0184	27.2086	-0.231458	53.4534	47.1004	1.78325	-1.20486	52.6342	-14.7201	25.6763	49.2219	5.60076	51.5331	59.2957	58.7231	-16.5149	64.134	82.7439	-14.7481	89.0985	89.2613	-3.49933	53.5648	
86	0.716667	98.131	39.6906	41.6401	76.9026	63.7748	23.4517	42.6635	71.4489	6.3451	15.2686	67.4407	8.58801	40.6688	4.81295	-9.22771	17.3369	22.4165	-16.6629	17.9029	55.7555	5.9026	21.8333	-2.11913	4.20391	-1.95236	27.3996	0.439175	16.8244	56.3273	24.012	5.3468	-0.828539	22.8597	-8.03271	26.9747	17.1882	8.31406	55.4842	32.8442	5.89756	-0.105928	46.4891	-9.33928	27.9488	36.7713	5.0313	53.148	46.4366	57.2081	-15.7529	61.7903	81.6807	-16.7974	87.5327	90.5366	-5.8149	49.2494	
87	0.725	104.359	37.268	42.5436	80.2518	56.4561	16.9011	50.0387	66.261	-2.02055	20.8309	58.36	-1.19263	48.9815	-1.52081	-11.517	26.7834	16.3629	-23.7815	27.1156	50.0465	-10.2801	29.2735	-6.14764	-3.45764	9.61264	21.6869	-11.3833	19.8886	50.9825	13.7347	14.4464	-5.04448	15.0842	-2.9485	21.4609	8.97199	10.8083	51.0059	21.385	8.9987	-3.16374	40.4952	-4.04762	23.462	27.2648	7.79217	52.3072	38.7711	61.1342	-18.6552	62.7007	81.2523	-13.7961	85.7238	95.7372	-5.65	52.4087	
88	0.733333	110.888	35.4446	41.787	89.8288	54.6661	12.1568	60.5928	58.4246	-6.09073	31.8262	50.5148	-7.15863	60.5925	-8.19506	-13.1932	35.3944	9.94359	-28.9849	38.0979	43.9902	-16.6063	38.0667	-14.8837	-5.85156	18.0208	10.4474	-18.6689	29.11	45.499	2.06686	25.8207	-10.4596	6.33621	8.15802	14.4851	-3.24556	16.4032	46.609	13.2979	20.3866	-8.7988	32.2762	1.91189	16.8187	16.0325	13.002	47.8034	25.0307	66.1741	-18.573	55.6492	85.8271	-14.6117	82.3741	102.35	-8.42441	49.8306	
89	0.741667	115.107	31.1076	37.0983	97.4312	48.7183	10.551	70.2761	51.6192	-15.1967	44.3806	44.668	-16.3668	75.6019	-14.8384	-16.3307	54.9895	-1.72187	-37.0595	46.2877	33.9247	-22.9651	53.8376	-22.3721	-8.27933	33.0184	2.42334	-27.6263	41.4305	36.6495	-7.40509	38.4457	-19.6142	1.38946	19.5325	0.394749	-10.784	26.6287	35.0693	-2.70755	27.9895	-16.0581	26.427	15.0512	3.80591	5.30709	17.2463	35.4362	9.72774	73.2808	-21.5775	59.1268	88.055	-15.3249	84.7039	110.658	-11.2734	48.2383	
90	0.75	124.627	31.291	38.3875	106.133	43.0899	5.45083	81.4334	42.5876	-22.0334	54.6007	34.3477	-28.0417	92.9961	-22.9177	-19.6935	69.3399	-12.8207	-37.7988	61.7887	21.4877	-33.2843	70.3794	-30.9518	-9.36324	49.9438	-9.69405	-33.4368	49.7462	25.5521	-16.9674	52.0138	-29.6398	1.79914	34.7896	-7.80354	-19.5877	36.7173	26.184	-9.66192	42.3364	-22.9428	22.3225	24.8	-5.68428	-1.54822	28.9828	23.4937	0.668209	83.2251	-24.883	53.8494	99.2322	-13.2124	86.1615	120.836	-12.5458	50.365	
91	0.758333	129.555	26.6902	39.793	115.157	37.3002	3.56624	94.1572	37.9377	-20.0667	69.6552	26.9504	-34.5287	105.945	-29.5188	-16.8727	86.068	-18.5309	-42.9604	75.8411	13.3999	-37.4008	85.7504	-37.8308	-13.0022	64.3701	-16.558	-37.6485	63.8231	17.9833	-20.7917	68.1429	-38.081	-3.71874	47.818	-19.6106	-25.0948	49.8104	13.1022	-19.4397	52.57	-32.7717	19.4119	40.1154	-15.3576	-8.90311	40.7574	13.202	-6.94632	92.0112	-30.2802	53.4736	102.817	-17.624	85.8087	128.994	-12.3953	54.5292	
